<svg t="1587387827757" class="icon" viewBox="0 0 1024 1024" version="1.1"
  xmlns="http://www.w3.org/2000/svg" p-id="1996" width="128" height="128">
  <path d="M483.3 652.4L451.9 606c45.7-31 89.3-85.7 122.8-154.2 32-65.5 50.4-135 50.4-190.9 0-27.3-6.4-51.5-17.9-68.3-11.4-16.6-26.8-24.6-47.1-24.6h-38.8v-56h38.8c38.5 0 71.6 17.4 93.3 48.9 17.9 26 27.8 61.5 27.8 100 0 64.1-20.4 142.7-56.1 215.5C587.3 553.5 537 616 483.3 652.4z" p-id="1997"></path>
  <path d="M262.6 652.7c-53.8-36.2-104.2-98.7-142-175.9-35.7-72.9-56.2-151.6-56.2-215.9 0-38.5 9.9-74 27.8-100 21.7-31.5 54.8-48.9 93.3-48.9h40v56h-40c-20.3 0-35.7 8.1-47.1 24.6-11.5 16.8-17.9 41-17.9 68.3 0 56.1 18.4 125.8 50.5 191.3 33.6 68.5 77.3 123.3 123 154.1L262.6 652.7z" p-id="1998"></path>
  <path d="M474.6 213.9c-41 0-74.4-33.4-74.4-74.4s33.4-74.4 74.4-74.4c41 0 74.4 33.4 74.4 74.4S515.6 213.9 474.6 213.9zM474.6 121.1c-10.1 0-18.4 8.2-18.4 18.4s8.2 18.4 18.4 18.4c10.1 0 18.4-8.2 18.4-18.4S484.7 121.1 474.6 121.1z" p-id="1999"></path>
  <path d="M272.4 213.9c-41 0-74.4-33.4-74.4-74.4s33.4-74.4 74.4-74.4c41 0 74.4 33.4 74.4 74.4S313.4 213.9 272.4 213.9zM272.4 121.1c-10.1 0-18.4 8.2-18.4 18.4s8.2 18.4 18.4 18.4c10.1 0 18.4-8.2 18.4-18.4S282.5 121.1 272.4 121.1z" p-id="2000"></path>
  <path d="M402.8 767.8h-60.1c-29.2 0-55.7-18.3-66.1-45.6l-0.3-0.9L255 650.5c-9.1-24.9-5.7-52.8 9-74.8 14.9-22.3 38.7-35.7 65.3-36.6 1 0 1.9 0 2.9 0h81.1c1 0 1.9 0 2.9 0 26.7 0.9 50.5 14.2 65.3 36.6 14.7 22.1 18 50 9 74.8l-21.4 70.8-0.3 0.9C458.5 749.5 432 767.8 402.8 767.8zM329.3 703c2.3 5.3 7.6 8.8 13.4 8.8h60.1c5.8 0 11.1-3.5 13.4-8.8l21.3-70.4 0.3-0.9c3.2-8.4 2.1-17.5-2.9-25-4.7-7.1-12.2-11.4-20.6-11.6-0.3 0-0.7 0-1 0h-81.1c-0.3 0-0.7 0-1 0-8.3 0.3-15.8 4.5-20.6 11.6-5 7.5-6 16.6-2.9 25l0.3 0.9L329.3 703z" p-id="2001"></path>
  <path d="M853 459.2c-59.5 0-107.9-48.4-107.9-107.9S793.5 243.4 853 243.4s107.9 48.4 107.9 107.9S912.5 459.2 853 459.2zM853 299.4c-28.6 0-51.9 23.3-51.9 51.9s23.3 51.9 51.9 51.9 51.9-23.3 51.9-51.9S881.6 299.4 853 299.4z" p-id="2002"></path>
  <path d="M745.4 957H480.4c-74.8 0-135.6-60.8-135.6-135.6v-81.6h56v81.6c0 43.9 35.7 79.6 79.6 79.6h265.1c43.9 0 79.6-35.7 79.6-79.6V431.2h56v390.1C881 896.1 820.2 957 745.4 957z" p-id="2003"></path>
</svg>
