<svg class="icon" viewBox="0 0 1029 1024" xmlns="http://www.w3.org/2000/svg" width="128" height="128"><path d="M368.64 281.6c0 15.36 10.24 25.6 25.6 25.6h235.52c15.36 0 25.6-10.24 25.6-25.6V81.92c0-15.36-10.24-25.6-25.6-25.6H394.24c-15.36 0-25.6 10.24-25.6 25.6V281.6"/><path d="M168.96 629.76H81.92C35.84 629.76 0 665.6 0 711.68v199.68c0 46.08 35.84 81.92 81.92 81.92h235.52c46.08 0 81.92-35.84 81.92-81.92V711.68c0-46.08-35.84-81.92-81.92-81.92H168.96zm148.48 56.32c15.36 0 25.6 10.24 25.6 25.6v199.68c0 15.36-10.24 25.6-25.6 25.6H81.92c-15.36 0-25.6-10.24-25.6-25.6V711.68c0-15.36 10.24-25.6 25.6-25.6h235.52zm225.28-317.44h81.92c46.08 0 81.92-35.84 81.92-81.92V81.92C706.56 35.84 670.72 0 624.64 0h-230.4c-46.08 0-81.92 35.84-81.92 81.92V281.6c0 46.08 35.84 81.92 81.92 81.92h92.16l56.32 5.12zM394.24 307.2c-15.36 0-25.6-10.24-25.6-25.6V81.92c0-15.36 10.24-25.6 25.6-25.6h235.52c15.36 0 25.6 10.24 25.6 25.6V281.6c0 15.36-10.24 25.6-25.6 25.6H394.24zm547.84 322.56h-230.4c-46.08 0-81.92 35.84-81.92 81.92v199.68c0 46.08 35.84 81.92 81.92 81.92H947.2c46.08 0 81.92-35.84 81.92-81.92V711.68c-5.12-46.08-40.96-81.92-87.04-81.92zm25.6 281.6c0 15.36-10.24 25.6-25.6 25.6H706.56c-15.36 0-25.6-10.24-25.6-25.6V711.68c0-15.36 10.24-25.6 25.6-25.6h235.52c15.36 0 25.6 10.24 25.6 25.6v199.68zm-112.64-281.6V481.28H542.72V368.64H486.4v112.64H168.96v148.48h61.44V537.6h563.2v92.16z"/></svg>