<svg t="1583544759721" class="icon" viewBox="0 0 1024 1024" version="1.1" 
  xmlns="http://www.w3.org/2000/svg" p-id="4992" width="128" height="128">
  <path d="M879.786667 1022.634667H137.258667A94.677333 94.677333 0 0 1 42.666667 928.085333c0-75.392 54.528-146.133333 153.429333-199.296 81.365333-43.690667 185.344-70.826667 271.274667-70.826666h52.138666c94.933333 0 207.274667 27.008 293.376 70.485333 104.021333 52.565333 161.408 123.392 161.408 199.381333v0.256a94.549333 94.549333 0 0 1-94.464 94.549334zM467.413333 701.44c-79.317333 0-175.36 25.216-250.709333 65.706667-48.725333 26.282667-130.517333 81.92-130.517333 161.109333a51.2 51.2 0 0 0 51.114666 51.114667h742.613334a51.2 51.2 0 0 0 51.114666-51.114667v-0.256c0-34.005333-17.92-100.138667-137.6-160.725333-80.384-40.618667-185.344-65.92-273.834666-65.92H467.413333v0.085333h-0.042666z m308.053334-421.248H241.621333v-113.066667A166.997333 166.997333 0 0 1 408.405333 0.298667h200.277334a166.997333 166.997333 0 0 1 166.784 166.826666v113.066667zM285.141333 236.8h447.018667V167.253333a123.434667 123.434667 0 0 0-123.306667-123.306666H408.576a123.434667 123.434667 0 0 0-123.306667 123.306666v69.546667h-0.128z" p-id="4993"></path>
  <path d="M374.954667 1003.477333c-45.738667-74.24-72.106667-183.893333-72.106667-300.8h43.477333c0 109.141333 23.978667 210.432 65.578667 277.973334l-36.949333 22.826666z m260.992 9.557334l-36.053334-24.149334c44.373333-66.389333 70.826667-173.397333 70.826667-286.293333h43.477333c0 123.050667-28.544 236.202667-78.250666 310.442667zM508.586667 625.493333c-71.338667 0-138.154667-32.512-188.16-91.52-49.109333-57.898667-76.16-134.826667-76.16-216.32h43.434666c0 145.749333 99.157333 264.405333 221.013334 264.405334 121.813333 0 220.928-118.656 220.928-264.448h43.477333c0 81.536-27.050667 158.336-76.202667 216.405333-50.218667 58.965333-117.034667 91.477333-188.330666 91.477333z m-13.269334-410.88h41.258667v-126.293333h-41.258667v126.293333z" p-id="4994"></path>
  <path d="M452.693333 172.074667h126.293334v-41.301334H452.693333z" p-id="4995"></path>
</svg>