<svg t="1583382015736" class="icon" viewBox="0 0 1024 1024" version="1.1" 
  xmlns="http://www.w3.org/2000/svg" p-id="1854" width="128" height="128">
  <path d="M6.8 133.8C6.8 63.9 63.2 7 133 7h442.4c69.8 0 126.2 56.8 126.2 126.8v883.8H6.8V133.8z m63.2 0v820.7h568.4V133.8c0-35.2-28.2-63.6-63-63.6H133c-34.8 0-63 28.4-63 63.6z" p-id="1855"></path>
  <path d="M638.4 448.8c0-34.7 28.5-62.9 62.6-62.9h253.8c34.6 0 62.6 28.8 62.6 62.9v568.7h-379V448.8z m63.2 505.6h252.6V449.1H701.6v505.3zM227.9 449.1h252.6c17.4 0 31.6-14.1 31.6-31.6 0-17.4-14.1-31.6-31.6-31.6H227.9c-17.4 0-31.6 14.1-31.6 31.6s14.2 31.6 31.6 31.6z" p-id="1856"></path>
  <path d="M322.6 291.3V544c0 17.4 14.1 31.6 31.6 31.6 17.4 0 31.6-14.1 31.6-31.6V291.3c0-17.4-14.1-31.6-31.6-31.6-17.4 0.1-31.6 14.2-31.6 31.6zM196.3 764.9c0-34.9 28-63.1 63.1-63.1H449c34.9 0 63.1 28 63.1 63.1v189.5c0 34.9-28 63.1-63.1 63.1H259.5c-34.9 0-63.1-28-63.1-63.1V764.9z m63.2 189.5H449V764.9H259.5v189.5zM638.4 575.4H891v63.2H638.4zM638.4 764.9H891v63.2H638.4z" p-id="1857"></path>
</svg>