<svg t="1583651659849" class="icon" viewBox="0 0 1024 1024" version="1.1" 
  xmlns="http://www.w3.org/2000/svg" p-id="1985" width="128" height="128">
  <path d="M0 0h1024v1024H0z" fill-opacity="0" p-id="1986"></path>
  <path d="M673.984 558.272a418.752 418.752 0 0 1 247.04 381.824H83.072a418.752 418.752 0 0 1 246.4-381.44h1.728A227.968 227.968 0 0 0 488.128 634.88l13.888 0.448a227.84 227.84 0 0 0 170.88-76.8l1.088-0.32zM502.016 64a228.544 228.544 0 0 1 12.16 456.768l-12.16 0.32a228.544 228.544 0 0 1-12.16-456.768L502.08 64z" p-id="1987"></path>
</svg>