<svg t="1589362187266" class="icon" viewBox="0 0 1024 1024" version="1.1"
  xmlns="http://www.w3.org/2000/svg" p-id="2458" width="128" height="128">
  <path d="M715.294118 75.294118h45.17647c83.169882 0 150.588235 67.418353 150.588236 150.588235v647.529412c0 83.169882-67.418353 150.588235-150.588236 150.588235H263.529412C180.359529 1024 112.941176 956.581647 112.941176 873.411765V225.882353C112.941176 142.712471 180.359529 75.294118 263.529412 75.294118h45.17647v60.235294h-45.17647a90.352941 90.352941 0 0 0-90.352941 90.352941v647.529412a90.352941 90.352941 0 0 0 90.352941 90.352941h496.941176a90.352941 90.352941 0 0 0 90.352941-90.352941V225.882353a90.352941 90.352941 0 0 0-90.352941-90.352941h-45.17647V75.294118z m-90.352942 0v60.235294H399.058824V75.294118h225.882352zM323.764706 331.294118h376.470588a30.117647 30.117647 0 1 1 0 60.235294H323.764706a30.117647 30.117647 0 1 1 0-60.235294z m0 210.823529h376.470588a30.117647 30.117647 0 1 1 0 60.235294H323.764706a30.117647 30.117647 0 1 1 0-60.235294z m0 210.823529h376.470588a30.117647 30.117647 0 1 1 0 60.235295H323.764706a30.117647 30.117647 0 1 1 0-60.235295z" p-id="2459"></path>
  <path d="M640 15.058824m30.117647 0l0 0q30.117647 0 30.117647 30.117647l0 105.411764q0 30.117647-30.117647 30.117647l0 0q-30.117647 0-30.117647-30.117647l0-105.411764q0-30.117647 30.117647-30.117647Z" p-id="2460"></path>
  <path d="M323.764706 15.058824m30.117647 0l0 0q30.117647 0 30.117647 30.117647l0 105.411764q0 30.117647-30.117647 30.117647l0 0q-30.117647 0-30.117647-30.117647l0-105.411764q0-30.117647 30.117647-30.117647Z" p-id="2461"></path>
</svg>
