<svg class="icon" viewBox="0 0 1024 1024" xmlns="http://www.w3.org/2000/svg" width="128" height="128"><path d="M904.704 392.704c-93.184 43.008-273.408 57.344-359.424 58.368v-15.36c0-12.8-10.24-22.528-23.04-22.528s-23.04 10.24-23.04 22.528v14.848c-29.184-1.024-81.92-3.584-106.496-6.656-110.08-13.824-251.392-43.008-258.56-45.568-20.992-6.144-40.448-12.8-54.272-18.432v47.616c15.872 6.656 33.792 12.8 54.272 18.944 30.72 10.24 161.28 30.72 251.392 42.496 29.696 3.584 84.992 6.144 113.664 7.168v30.72c0 12.8 10.24 22.528 23.04 22.528s23.04-10.24 23.04-22.528V496.64c24.064-.512 72.704-1.536 95.744-3.584 74.752-7.168 201.216-24.064 264.704-51.2 16.384-7.168 30.208-14.336 38.912-19.968v-47.104c-3.584 2.048-13.312 6.656-39.936 17.92z"/><path d="M392.192 443.904c24.576 3.072 77.312 5.632 106.496 6.656v-14.848c0-12.8 10.24-22.528 23.04-22.528s23.04 10.24 23.04 22.528v15.36c86.016-1.024 266.24-15.36 359.424-58.368 26.624-11.264 36.352-15.872 40.448-17.92V332.8c0-44.544-36.864-80.896-82.432-80.896h-174.08v-65.536c0-23.04-19.456-41.984-43.008-41.984H386.048c-23.552 0-43.008 18.944-43.008 41.984v65.024H162.304c-45.568 0-82.432 36.352-82.432 80.896v47.104c13.312 5.632 33.28 12.288 54.272 18.432 6.656 3.072 147.968 32.256 258.048 46.08zm-2.56-253.952h252.416v61.952H389.632v-61.952z"/><path d="M641.536 493.056c-23.04 2.048-72.192 3.584-95.744 3.584v30.208c0 12.8-10.24 22.528-23.04 22.528s-23.04-10.24-23.04-22.528v-30.72c-29.184-1.024-83.968-3.584-113.664-7.168-89.6-11.264-220.672-32.256-251.392-42.496-20.48-6.144-38.4-12.8-54.272-18.944v368.128c0 44.544 36.864 80.896 82.432 80.896H862.72c45.568 0 82.432-36.352 82.432-80.896v-373.76c-8.704 5.632-22.528 12.8-38.912 19.968-63.488 27.136-189.952 44.544-264.704 51.2z"/></svg>